<?xml version="1.0" encoding="utf-8"?>
<!-- Generator: Adobe Illustrator 29.8.2, SVG Export Plug-In . SVG Version: 9.03 Build 0)  -->
<svg version="1.0" xmlns="http://www.w3.org/2000/svg" xmlns:xlink="http://www.w3.org/1999/xlink" x="0px" y="0px"
	 viewBox="0 0 1024 1536" enable-background="new 0 0 1024 1536" xml:space="preserve">
<g id="antenna-right">
	<g>
		
			<path fill="#FFFFFF" stroke="#5E7397" stroke-width="2" stroke-linecap="round" stroke-linejoin="round" stroke-miterlimit="10" d="
			M382.853,533.102c-0.047,0.588-0.056,1.189-0.014,1.795l5.896,85.057c0.463,6.588,6.172,11.562,12.77,11.11
			c1.524-0.108,2.959-0.494,4.263-1.112c4.337-2.039,7.191-6.584,6.847-11.658l-5.897-85.047c-0.462-6.598-6.172-11.572-12.77-11.11
			c-1.483,0.101-2.897,0.469-4.168,1.059C385.914,524.982,383.203,528.746,382.853,533.102z"/>
		<path fill="#BED1F3" d="M382.853,533.102c-0.047,0.588-0.056,1.189-0.014,1.795l0.101,1.483l0.583,8.464l5.211,75.11
			c0.463,6.588,6.172,11.562,12.77,11.11c1.524-0.108,2.959-0.494,4.263-1.112l0.399-2.717c-6.588,0.463-12.308-4.512-12.76-11.109
			l-4.835-69.693l-0.512-7.345l-0.559-8.011c-0.206-2.926,0.668-5.685,2.28-7.883C385.914,524.982,383.203,528.746,382.853,533.102z
			"/>
		<path fill="none" stroke="#5E7397" stroke-width="2" stroke-linecap="round" stroke-linejoin="round" stroke-miterlimit="10" d="
			M382.853,533.102c-0.047,0.588-0.056,1.189-0.014,1.795l5.896,85.057c0.463,6.588,6.172,11.562,12.77,11.11
			c1.524-0.108,2.959-0.494,4.263-1.112c4.337-2.039,7.191-6.584,6.847-11.658l-5.897-85.047c-0.462-6.598-6.172-11.572-12.77-11.11
			c-1.483,0.101-2.897,0.469-4.168,1.059C385.914,524.982,383.203,528.746,382.853,533.102z"/>
	</g>
	<g>
		
			<path fill="#FFFFFF" stroke="#5E7397" stroke-width="2" stroke-linecap="round" stroke-linejoin="round" stroke-miterlimit="10" d="
			M365.687,515.529c-1.296,16.098,10.711,30.207,26.809,31.502c11.812,0.951,22.544-5.249,27.932-14.978
			c1.97-3.533,3.225-7.536,3.571-11.832c1.296-16.108-10.701-30.206-26.809-31.502c-9.21-0.741-17.778,2.873-23.647,9.112
			C369.143,502.504,366.241,508.641,365.687,515.529z"/>
		<path fill="#BED1F3" d="M365.687,515.529c-1.04,12.928,6.491,24.56,17.836,29.315c1.61,0.681,3.293,1.218,5.049,1.59l-0.048-0.69
			c-0.266-3.811-2.358-7.212-5.535-9.332c-0.016-0.011-0.032-0.021-0.048-0.032c-8.561-5.695-13.852-15.742-12.969-26.706
			c0.346-4.296,1.602-8.308,3.571-11.842C369.143,502.504,366.241,508.641,365.687,515.529z"/>
		<path fill="none" stroke="#5E7397" stroke-width="2" stroke-linecap="round" stroke-linejoin="round" stroke-miterlimit="10" d="
			M365.687,515.529c-1.296,16.098,10.711,30.207,26.809,31.502c11.812,0.951,22.544-5.249,27.932-14.978
			c1.97-3.533,3.225-7.536,3.571-11.832c1.296-16.108-10.701-30.206-26.809-31.502c-9.21-0.741-17.778,2.873-23.647,9.112
			C369.143,502.504,366.241,508.641,365.687,515.529z"/>
	</g>
</g>
<g id="antenna-left">
	<g>
		
			<path fill="#FFFFFF" stroke="#5E7397" stroke-width="2" stroke-linecap="round" stroke-linejoin="round" stroke-miterlimit="10" d="
			M629.961,539.069c-0.081,0.584-0.124,1.184-0.118,1.791l0.969,85.256c0.081,6.604,5.494,11.9,12.106,11.83
			c1.527-0.02,2.983-0.322,4.32-0.863c4.448-1.784,7.56-6.158,7.51-11.243l-0.97-85.246c-0.08-6.614-5.492-11.91-12.106-11.83
			c-1.486,0.015-2.919,0.301-4.223,0.816C633.487,531.139,630.563,534.74,629.961,539.069z"/>
		<path fill="#BED1F3" d="M629.961,539.069c-0.081,0.584-0.124,1.184-0.118,1.791l0.016,1.486l0.093,8.484l0.861,75.286
			c0.081,6.604,5.494,11.9,12.106,11.83c1.527-0.02,2.983-0.322,4.32-0.863l0.556-2.689c-6.604,0.081-12.026-5.216-12.096-11.828
			l-0.798-69.855l-0.087-7.362l-0.095-8.03c-0.036-2.933,0.996-5.637,2.732-7.738C633.487,531.139,630.563,534.74,629.961,539.069z"
			/>
		<path fill="none" stroke="#5E7397" stroke-width="2" stroke-linecap="round" stroke-linejoin="round" stroke-miterlimit="10" d="
			M629.961,539.069c-0.081,0.584-0.124,1.184-0.118,1.791l0.969,85.256c0.081,6.604,5.494,11.9,12.106,11.83
			c1.527-0.02,2.983-0.322,4.32-0.863c4.448-1.784,7.56-6.158,7.51-11.243l-0.97-85.246c-0.08-6.614-5.492-11.91-12.106-11.83
			c-1.486,0.015-2.919,0.301-4.223,0.816C633.487,531.139,630.563,534.74,629.961,539.069z"/>
	</g>
	<g>
		
			<path fill="#FFFFFF" stroke="#5E7397" stroke-width="2" stroke-linecap="round" stroke-linejoin="round" stroke-miterlimit="10" d="
			M613.841,520.532c-2.224,15.996,8.947,30.775,24.943,32.999c11.737,1.632,22.809-3.936,28.751-13.338
			c2.171-3.414,3.655-7.337,4.249-11.605c2.225-16.006-8.937-30.774-24.943-32.999c-9.152-1.272-17.914,1.841-24.135,7.73
			C618.044,507.729,614.792,513.688,613.841,520.532z"/>
		<path fill="#BED1F3" d="M613.841,520.532c-1.786,12.846,5.06,24.894,16.111,30.297c1.568,0.773,3.217,1.406,4.948,1.879
			l-0.008-0.691c-0.045-3.82-1.937-7.336-4.987-9.637c-0.015-0.012-0.031-0.023-0.046-0.035
			c-8.217-6.18-12.919-16.516-11.404-27.412c0.594-4.269,2.079-8.202,4.25-11.615C618.044,507.729,614.792,513.688,613.841,520.532z
			"/>
		<path fill="none" stroke="#5E7397" stroke-width="2" stroke-linecap="round" stroke-linejoin="round" stroke-miterlimit="10" d="
			M613.841,520.532c-2.224,15.996,8.947,30.775,24.943,32.999c11.737,1.632,22.809-3.936,28.751-13.338
			c2.171-3.414,3.655-7.337,4.249-11.605c2.225-16.006-8.937-30.774-24.943-32.999c-9.152-1.272-17.914,1.841-24.135,7.73
			C618.044,507.729,614.792,513.688,613.841,520.532z"/>
	</g>
</g>
<g id="body">
	<g>
		
			<path fill="#FFFFFF" stroke="#5E7397" stroke-width="2" stroke-linecap="round" stroke-linejoin="round" stroke-miterlimit="10" d="
			M264.497,785.999c-0.229,64.63,19.796,109.205,115.51,124.663c93.001,15.008,181.638,14.614,230.536,12.426
			c96.779-4.322,137.925-48.272,141.133-125.766c0.21-5.05,0.324-11.223,0.353-17.874c0.062-16.192-0.415-35.18-1.371-47.454
			c-5.871-75.292-46.478-130.659-133.581-139.428c-52.678-5.307-152.606-9.52-205.448-7.394
			c-65.256,2.612-119.28,38.558-137.267,102.138c-2.825,9.927-4.754,20.532-5.712,31.792
			C267.189,736.369,264.58,762.492,264.497,785.999z"/>
		<path fill="#BED1F3" d="M264.497,785.999c-0.229,64.63,19.796,109.205,115.51,124.663
			c93.001,15.008,181.638,14.614,230.536,12.426c96.779-4.322,137.925-48.272,141.133-125.766c0.21-5.05,0.324-11.223,0.353-17.874
			c-6.238,62.225-44.579,97.4-128.849,100.943c-44.946,1.89-126.418,2.138-211.905-11.302
			c-87.989-13.832-106.428-53.436-106.275-110.836c0.057-20.879,2.42-44.072,3.758-59.414c3.437-39.37,20.758-69.749,46.666-89.938
			c-1.045,0.263-53.453,14.087-81.063,78.409c-2.825,9.927-4.754,20.532-5.712,31.792
			C267.189,736.369,264.58,762.492,264.497,785.999z"/>
		<path fill="none" stroke="#5E7397" stroke-width="2" stroke-linecap="round" stroke-linejoin="round" stroke-miterlimit="10" d="
			M264.497,785.999c-0.229,64.63,19.796,109.205,115.51,124.663c93.001,15.008,181.638,14.614,230.536,12.426
			c96.779-4.322,137.925-48.272,141.133-125.766c0.21-5.05,0.324-11.223,0.353-17.874c0.062-16.192-0.415-35.18-1.371-47.454
			c-5.871-75.292-46.478-130.659-133.581-139.428c-52.678-5.307-152.606-9.52-205.448-7.394
			c-65.256,2.612-119.28,38.558-137.267,102.138c-2.825,9.927-4.754,20.532-5.712,31.792
			C267.189,736.369,264.58,762.492,264.497,785.999z"/>
	</g>
</g>
<g id="face">
	<path d="M424.903,789.931c52.732,2.467,152.891,6.06,203.841,8.395c33.528,1.537,64.514-20.235,64.432-61.407
		c-0.016-7.736-1.607-21.353-2.405-29.047c-4.235-40.862-36.134-62.341-69.651-64.098c-52.03-2.728-135.601-7.261-182.143-9.193
		c-43.733-1.815-76.147,20.467-76.588,64.059c-0.078,7.735-0.212,24.26,0.363,31.974
		C365.225,763.728,391.377,788.363,424.903,789.931z"/>
</g>
<g id="eye-right">
	
		<ellipse transform="matrix(0.1127 -0.9936 0.9936 0.1127 -290.1922 1091.6882)" fill="#FFFFFF" cx="466.142" cy="708.323" rx="31.078" ry="32.344"/>
</g>
<g id="eye-left">
	
		<ellipse transform="matrix(0.1127 -0.9936 0.9936 0.1127 -175.2538 1233.7277)" fill="#FFFFFF" cx="603.138" cy="714.989" rx="31.078" ry="32.344"/>
</g>
</svg>
