<?xml version="1.0" encoding="UTF-8"?>
<svg id="Layer_1" xmlns="http://www.w3.org/2000/svg" version="1.1" viewBox="0 0 1024 1024">
  <!-- Generator: Adobe Illustrator 29.8.2, SVG Export Plug-In . SVG Version: 2.1.1 Build 3)  -->
  <defs>
    <style>
      .st0 {
        fill: #e7d8b2;
      }

      .st1 {
        fill: #252520;
      }
    </style>
  </defs>
  <g id="kochi">
    <path class="st0" d="M911.7,623.5c-3.9-32.8-9.5-65.4-16.8-98-4-17.8-9.2-40.9-15.7-58.1-5.1-13.6-12.3-27-21.2-40-28.4-41.6-71.4-78.9-114.4-102.2-21.1-11.4-36.6-16.3-56.6-20.8h0c0,0-.1,0-.2,0-6.9-29.1-14.5-58-22.8-86.7,8.4-5.8,13.4-12.7,11.7-27.2-1.4-11.5-7.2-24.6-15.2-36.4-8.1-11.9-17.3-21-26.2-26-9.1-5-16.8-4.9-22.3.5-5.4,5.2-8.3,15.1-7.9,27.2.6,19.4,9.4,39.6,24.2,52.6,3.2,2.8,6.1,4.6,9.5,6.8,6.8,28.6,13,57.4,18.7,86.4-63.2-3-126.2-2.5-188.9,1.5-31.4,2-64.2,5.6-95.2,8.8-.3,0-.5,0-.8,0,5.2-26.1,12.3-58.4,17.2-81.8,12.1-9.2,20.5-18.6,26.8-34.6,4.8-11.9,6-23.9,4.3-33.3-1.8-9.8-6.5-15.9-13.3-16.6-3.3-.4-7.3.3-11.4,2.4-17.6,9.3-37.4,34.6-43.9,58.8-2.8,10.9-1.5,19.9,3.9,24.9,2,2,4.4,3.2,7.3,4.1-7.5,27.1-14.4,54.3-20.7,81.6-39.7,9.5-82.1,36.1-119.5,68.5-23.8,20.8-44.4,43.1-58.1,65.8-11.2,18.4-17.8,43.1-22.9,62.1-6.7,24.5-12.3,48.9-16.6,73.3-4.1,22.7-7.1,45.3-9.1,67.8-1.2,13.2-3,30.7-1.6,44.1,3.9,36.3,30.7,79.8,71.2,122.4,26,27,56.4,51.9,88,69.5,23,13,65.3,26.6,90.5,33.4,48.6,13.9,97.2,23.4,145.8,28.4,63.2,6.5,126.4,5.3,189.6-3.4,11.1-1.5,22.9-3.2,34-6.3,50.6-13.6,100-51.2,135.9-95.7,8.9-11.2,16.8-22.7,23.6-34.3,26.6-48,25.5-68.6,24.3-111.9-.9-25.9-2.8-51.7-5.9-77.5.2,0,.4-.1.6-.2Z"/>
    <path id="face" class="st1" d="M368.9,396.2c20-.8,43.6-.2,63.8-.2h188.4c16.4,0,36.8-.8,52.6,2.1,17.9,3.3,34.5,11.5,48.1,23.7,35.3,31.9,29.4,68.7,29.7,111.1.2,35.2,2.9,66.4-23.4,94.2-19.7,20.8-44.8,29.9-73,31-18.7.8-43.1,0-62.1,0h-193.2c-16,0-32.9.9-48.7-1.6-43.2-6.9-77.2-41.9-78.6-86.3-.5-15.6,0-31.4-.2-46.7-.5-34.9-2.4-68.5,23.8-95.9,20-21.6,44.1-30.1,72.8-31.6h0Z"/>
    <path id="eyeL" class="st0" d="M408,480.1c24.6-4,47.8,12.8,51.7,37.4,3.8,24.7-13.1,47.7-37.9,51.4-24.4,3.6-47.1-13.2-50.9-37.5-3.8-24.4,12.8-47.2,37.1-51.2h0Z"/>
    <path id="eyeR" class="st0" d="M601.2,480.3c24.3-4.1,47.4,12.2,51.6,36.6,4.2,24.3-12.2,47.4-36.5,51.6-24.3,4.2-47.5-12.2-51.6-36.5-4.2-24.4,12.2-47.5,36.6-51.6h0Z"/>
  </g>
</svg>