<?xml version="1.0" encoding="UTF-8"?>
<svg id="Layer_1" xmlns="http://www.w3.org/2000/svg" version="1.1" viewBox="0 0 1024 1024">
  <!-- Generator: Adobe Illustrator 29.8.2, SVG Export Plug-In . SVG Version: 2.1.1 Build 3)  -->
  <defs>
    <style>
      .st0 {
        fill: #e7d8b2;
      }

      .st1 {
        fill: #252520;
      }
    </style>
  </defs>
  <g id="kochi">
    <polygon class="st0" points="808.4 610.2 828.4 592.4 808.4 574.5 828.4 556.5 808.4 538.6 828.4 520.7 808.5 509.9 828.5 499.4 808.5 488.7 828.3 477.7 807.8 468.1 826.9 458.6 806 454.2 824.1 442.8 802.9 440.6 819.7 427.5 792 413.7 796.3 383 765.7 378.5 760.2 348.1 729.7 353.3 728.2 330.7 711.4 345.9 706.5 323.8 692 341.2 684.8 319.8 683.3 319.7 683.3 339.7 683.3 319.7 683.3 339.7 683.3 339.7 683.3 319.7 683.2 339.7 683.2 319.7 683.1 339.7 693.1 329.7 673.1 314.8 693.1 300 673.1 285.1 693.1 270.3 673.2 254 694.8 260.3 689.2 239.8 708.5 248.7 696.2 231.4 717.4 232.5 699.5 221.6 719.8 216.6 699.4 211.8 717.2 200.7 696.3 202.5 709.8 186.5 690.6 194.9 698.1 175.3 682.7 189.4 683.8 168.5 673.1 186.6 667.5 166.4 662.9 186.9 651.3 169.4 653.4 190.3 637.1 177.1 645.7 196.2 626.1 188.8 640.3 204.2 619.4 203.4 637.5 216.2 618.6 227.9 640.6 230.7 629.4 249.9 650.3 242.2 640.6 259.8 652.9 243.9 645 262.4 656.2 245.6 643.5 255.9 663.5 270.2 643.5 284.8 663.5 299.5 643.5 314.1 657.1 338.1 615.9 318.8 578.3 338.8 540.8 318.8 503.2 338.8 465.6 318.8 446.6 338.8 427.4 318.9 408.4 339 389.4 319 370.1 338.8 370.1 318.8 370 338.8 369.8 318.8 369.7 338.8 379.5 328.6 359.7 313.9 379.9 299.5 360.1 284.5 380.2 269.9 360.8 251.6 382.1 259.8 375.9 239.4 395.6 247.4 382.7 230.6 403.9 231 385.9 220.5 406.2 215.5 385.7 211.2 403.4 200.1 382.6 202.5 395.8 186.2 376.6 194.6 384.1 175 368.6 189.1 369.5 168.2 361.4 186.8 361.6 166.5 356.2 186.1 353.4 166 351.3 186.1 333.6 170.3 333.1 194 309.5 191.9 323.8 210.8 303.8 223.5 324.6 225.6 308.3 238.8 328.8 234.3 317.4 251.9 335.4 241.2 325.8 258.9 338.5 243.3 330.9 261.9 341.9 245.1 329.9 255.6 349.9 270.1 329.9 285.2 349.9 300.2 329.9 315.3 348.9 334.7 314.5 324.6 299 351 269.2 344.3 262.6 374.3 232.2 377.1 239.2 401.1 214.4 403.5 225.9 425.6 202 432.8 217.6 452.3 195.9 462.8 214.9 477.8 194.7 491 214.7 504.6 194.8 518.3 214.8 534.5 194.8 550.6 214.8 566.8 194.8 582.9 214.8 599.1 194.8 614.1 214.8 629.2 194.8 644.2 214.8 659.3 194.8 674.3 214.7 684.1 194.7 693.8 214.7 703.4 195 713.7 215.6 722 200 748.2 226.4 763.4 219.7 793.2 249.5 799.5 252.4 829.8 276.2 822.5 278.9 847.3 300.7 835.4 308.2 859.1 327.3 843.2 338.9 864.5 353.9 845.2 367.8 865.3 381.9 845.2 396.1 865.1 418.9 845.1 441.7 865.1 464.4 845.1 487.2 865.1 510 845.1 539.6 865.1 569.2 845.1 598.9 865.1 628.5 845.1 658.1 865.1 663.4 845.1 668.8 865.1 673.8 845 679.9 864.8 683.7 844.4 710.1 860.1 725.7 833.7 755.6 840.3 762.2 810.3 792.8 807.2 780.6 790.3 800.3 797 786.8 781.1 807 786.4 792.3 771.7 818.4 761.7 804.8 737.3 827.3 720.7 807.9 700.4 827.9 680.8 807.9 666.7 827.9 652.6 807.9 638.6 827.9 624.5 807.9 610.3 820 620.2 816.1 600.6 820.2 620.1 818.2 620.3 808.4 610.2"/>
    <path id="face" class="st1" d="M368.9,396.2c20-.8,43.6-.2,63.8-.2h188.4c16.4,0,36.8-.8,52.6,2.1,17.9,3.3,34.5,11.5,48.1,23.7,35.3,31.9,29.4,68.7,29.7,111.1.2,35.2,2.9,66.4-23.4,94.2-19.7,20.8-44.8,29.9-73,31-18.7.8-43.1,0-62.1,0h-193.2c-16,0-32.9.9-48.7-1.6-43.2-6.9-77.2-41.9-78.6-86.3-.5-15.6,0-31.4-.2-46.7-.5-34.9-2.4-68.5,23.8-95.9,20-21.6,44.1-30.1,72.8-31.6h0Z"/>
    <path id="eyeL" class="st0" d="M408,480.1c24.6-4,47.8,12.8,51.7,37.4,3.8,24.7-13.1,47.7-37.9,51.4-24.4,3.6-47.1-13.2-50.9-37.5-3.8-24.4,12.8-47.2,37.1-51.2h0Z"/>
    <path id="eyeR" class="st0" d="M601.2,480.3c24.3-4.1,47.4,12.2,51.6,36.6,4.2,24.3-12.2,47.4-36.5,51.6-24.3,4.2-47.5-12.2-51.6-36.5-4.2-24.4,12.2-47.5,36.6-51.6h0Z"/>
  </g>
</svg>