<?xml version="1.0" encoding="UTF-8"?>
<svg id="Layer_1" xmlns="http://www.w3.org/2000/svg" version="1.1" viewBox="0 0 1024 1024">
  <!-- Generator: Adobe Illustrator 29.8.2, SVG Export Plug-In . SVG Version: 2.1.1 Build 3)  -->
  <defs>
    <style>
      .st0 {
        fill: #e7d8b2;
      }

      .st1 {
        fill: #252520;
      }
    </style>
  </defs>
  <g id="kochi">
    <path class="st0" d="M940.1,616.9c11.5-32.7,19.6-65.5,24.3-98.3,2.7-17.9,5.4-41.4,3.9-58.6-1.2-13.5-5.3-26.3-12.2-37.6-21.7-36.8-69.4-53.6-124.2-50.4-26.8,1.3-47.7,5.6-75,11.6,0,0,0,0,0,0,0,0-.2,0-.2,0-4.7-18.2-10.6-36.3-17.9-54.3,13.7-11.2,22.8-22.2,23.2-35.6.3-10.5-5.8-18.9-16-22.5-10.4-3.6-23.4-1.8-37,3.8-13.9,5.7-26.7,14.7-36.4,24.2-9.5,9.3-15.4,18.6-16.2,26.6-1.4,12.6,9.8,20.2,30.4,20.4,4.5,0,8.5-.5,13.3-1,6.1,16.3,11,32.8,14.9,49.4-88.1,22.8-175.5,33.5-262.4,32.1-43.5-.7-88.8-4.3-131.8-11.4-.4,0-.8-.1-1.1-.2,2.8-13.5,7.8-29.8,11.2-41.9,16.8,0,28.1-2,35.6-8.2,5.6-4.6,6-10.6,1.7-17-4.5-6.6-13.3-13.3-24.8-19.3-5.6-2.9-12.3-5.8-18.7-7.9-28-9.7-53.9-7.3-57.4,10-1.5,7.6,3.1,16.6,12.7,24.2,3.7,3,7.6,5.4,12.2,7.8-5.5,15.1-9.8,30.3-13.1,45.7-54-8.6-107.2-10.9-145.8,4.8-24.6,9.8-41.9,26.3-48.8,47-5.8,16.8-2.2,41.6,1.1,60.3,4,24.2,10.3,48.5,18.9,72.9,8,22.6,17.9,45.3,29.8,68.1,6.9,13.3,16.7,31.5,26.5,43.8,26.8,34,72.8,55.4,116.5,59.4,28.2,2.7,54.2-.7,77.2-7.1,16.6-5.2,43.8-16.2,60.4-20,31.9-8,63.8-10.3,95.8-6.9,41.5,4.4,83,18.5,124.5,42.1,7.3,4.1,14.9,9.1,22.7,13.1,34.7,18.7,80.1,28.5,129.5,14.8,12.2-3.5,24.3-8.3,35.9-14.4,47.4-26.9,61.1-50.5,83.4-92.8,13.2-25.6,24.4-51.3,33.4-77Z"/>
    <path id="face" class="st1" d="M345.7,447.9c23.7,4.9,50.6,9.9,74.2,12.2,46.4,4.8,92.8,4,139.3-2.3,26.5-3.6,53-9,79.5-16.2,19.2-5,41.9-13.5,63.2-18,24.1-5,53.2-6,82.7,0,78.5,16.5,96,63.6,79.7,108.9-11.4,38-48.5,75.1-119,95.4-52.6,14.9-88.1,13.1-112.5,6-16.7-4.7-36.3-11-52.5-14.4-34.1-7.3-68.2-10.6-102.2-9.7-20.2.5-40.3,2.5-60.4,5.8-13.6,2.2-26.6,6-42.9,7.6-21.8,2.1-53.6-.6-87.3-10.2-33.2-9.4-68.3-25.7-85.9-45.9-12.5-14-19.8-28.4-24-42.1-10.5-30.9,2-63.6,56.3-77.2,41.8-10.8,78.1-6.6,111.8,0h0Z"/>
    <path id="eyeL" class="st0" d="M408,480.1c24.6-4,47.8,12.8,51.7,37.4,3.8,24.7-13.1,47.7-37.9,51.4-24.4,3.6-47.1-13.2-50.9-37.5-3.8-24.4,12.8-47.2,37.1-51.2h0Z"/>
    <path id="eyeR" class="st0" d="M601.2,480.3c24.3-4.1,47.4,12.2,51.6,36.6,4.2,24.3-12.2,47.4-36.5,51.6-24.3,4.2-47.5-12.2-51.6-36.5-4.2-24.4,12.2-47.5,36.6-51.6h0Z"/>
  </g>
</svg>