<?xml version="1.0" encoding="UTF-8"?>
<svg id="Layer_1" xmlns="http://www.w3.org/2000/svg" version="1.1" viewBox="0 0 1024 1024">
  <!-- Generator: Adobe Illustrator 29.8.2, SVG Export Plug-In . SVG Version: 2.1.1 Build 3)  -->
  <defs>
    <style>
      .st0 {
        fill: #e7d8b2;
      }

      .st1 {
        fill: #252520;
      }
    </style>
  </defs>
  <g id="kochi">
    <path id="face" class="st1" d="M368.9,396.2c20-.8,43.6-.2,63.8-.2h188.4c16.4,0,36.8-.8,52.6,2.1,17.9,3.3,34.5,11.5,48.1,23.7,35.3,31.9,29.4,68.7,29.7,111.1.2,35.2,2.9,66.4-23.4,94.2-19.7,20.8-44.8,29.9-73,31-18.7.8-43.1.1-62.1.1h-193.2c-16,0-32.9.9-48.7-1.6-43.2-6.9-77.2-41.9-78.6-86.3-.5-15.6,0-31.4-.2-46.7-.5-34.9-2.4-68.5,23.8-95.9,20-21.6,44.1-30.1,72.8-31.6h0Z"/>
    <path id="eyeL" class="st0" d="M408,480.1c24.6-4,47.8,12.8,51.7,37.4,3.8,24.7-13.1,47.7-37.9,51.4-24.4,3.6-47.1-13.2-50.9-37.5-3.8-24.4,12.8-47.2,37.1-51.2h0Z"/>
    <path id="eyeR" class="st0" d="M601.2,480.3c24.3-4.1,47.4,12.2,51.6,36.6,4.2,24.3-12.2,47.4-36.5,51.6-24.3,4.2-47.5-12.2-51.6-36.5-4.2-24.4,12.2-47.5,36.6-51.6h0Z"/>
    <path class="st0" d="M818.4,610.3v-89.6c0-16.3.6-37.5-.6-53.4-1-12.5-3.5-24.8-7.6-36.6-12.8-37.8-40.2-68.9-76.1-86.4-17.5-8.6-31.8-11.8-50.8-14.6h0s-.2,0-.2,0v-74.3c11.8-6,20.5-12.9,24.8-26,3.3-10.4,2.4-21.8-2.7-31.5-5.1-9.8-13.7-16.6-24.3-19.8-10.8-3.2-22.4-2-32.3,3.4-9.6,5.2-16.7,14.1-19.6,24.6-4.7,16.8,1.5,33.8,15.3,44.1,3,2.2,5.9,3.6,9.2,5.3v73.3h-187.9c-31.4,0-64.1.5-95.3,0h-.8c.3-23.4.9-52.4.6-73.6,12.1-6.4,20.1-13.6,24.3-27.2,3.2-10.1,2.1-21-3-30.3-5.2-9.7-14.1-16.9-24.7-19.9-5.1-1.5-11.1-2.2-16.5-1.6-23.7,2.7-39.6,22.1-36.5,46,1.4,10.7,7.1,20.5,15.7,27,3.3,2.5,6.7,4.3,10.5,5.9v75.2c-39.1,3.7-75.1,22.9-100,53.2-16,19.3-27,42.3-32.1,66.8-4.1,19.9-3,47.1-3,68v80.8s0,75.2,0,75.2c0,14.7-.6,34.5.8,48.7,3.9,38.8,23,74.5,53.1,99.1,19.3,15.7,42.3,26.3,66.8,30.9,17.8,3.2,50.9,2.1,70.6,2.1h113.9s148.1,0,148.1,0c8.7,0,17.9.2,26.5-.7,39.3-3.6,75.5-23,100.4-53.5,6.2-7.7,11.6-16,16.2-24.7,18.1-36.7,16.7-56.3,16.7-95.4v-70.4Z"/>
  </g>
</svg>