<?xml version="1.0" encoding="UTF-8"?>
<svg id="Layer_1" xmlns="http://www.w3.org/2000/svg" version="1.1" viewBox="0 0 1024 1024">
  <!-- Generator: Adobe Illustrator 29.8.2, SVG Export Plug-In . SVG Version: 2.1.1 Build 3)  -->
  <defs>
    <style>
      .st0 {
        fill: #e7d8b2;
      }

      .st1 {
        fill: #252520;
      }
    </style>
  </defs>
  <g id="kochi">
    <path class="st0" d="M805,619l21-18c-6-7-13-11-20-17,8-6,14-12,21-19-7-5-13-11-19-17,6-7,14-12,20-18-6-3-13-6-19-10,6-5,14-7,20-12-7-3-13-7-20-10,7-3,13-8,20-11-7-3-13-7-20-9,7-3,13-6,19-11-7,1-13-4-20-3,5-5,12-9,18-12-7-2-14-1-21-2,6-5,12-9,17-14-9-4-18-10-27-13,3-11,3-21,5-32-10-1-20-2-30-4-1-10-3-21-5-31-10,1-19,5-29,5-2-8,0-15-2-23-5,6-10,11-16,16-2-8-3-15-5-23-3,7-10,12-14,18-1-6-4-12-5-18,0-2,0-4-3-4v20-20,20-20c0,7,1,13-1,20,0-7,2-13,1-20,1,7-1,13-1,20,5-2,6-7,10-10-7-5-12-11-19-16,7-5,13-10,20-14-6-6-13-11-20-16,7-5,13-10,20-15-7-5-13-12-20-17,7,2,14,4,21,7-2-7-2-14-6-21,7,2,13,5,19,9l-12-18c7,1,14,1,21,1-6-3-12-7-18-11,7-1,13-4,20-5-7-1-13-4-20-5,5-4,11-8,17-12-7,1-13,2-20,2,4-5,8-11,12-16-6,3-12,5-18,8,1-7,5-13,6-20-4,5-10,10-14,15v-22c-3,7-7,12-10,19-2-7-3-14-6-21,1,7-4,14-3,21l-12-18c0,7,2,14,2,21-6-4-10-9-16-13,2,7,7,12,9,19-6-3-13-4-19-7,4,6,9,11,14,16-7-2-13,0-20-2,5,6,12,9,18,14-4,2-8,3-11,7-2,2-5,3-8,4,7,2,15,2,22,4-3,7-8,12-11,19,7-2,14-5,21-7-5,5-5,12-10,17,4-5,8-11,12-16-3,6-4,13-7,19,3-6,8-11,10-17-4,4-8,7-12,10,7,5,13,10,20,15-7,5-13,10-20,15,7,5,13,10,20,15-7,5-13,10-20,15,4,9,9,17,13,25-13-7-27-14-40-21-13,6-26,12-38,19-12-8-23-16-36-22-13,6-25,12-38,18-12-8-25-15-38-22-6,7-14,11-19,19-5-8-14-13-19-21-7,6-12,14-20,19-6-7-12-14-19-20-6,7-14,12-20,19-1-7,1-13,1-20-2,7-1,13-1,20v-20,20c2-5,7-6,10-10-7-5-13-10-20-15,6-6,14-9,21-14-7-5-13-10-20-15,7-5,14-9,20-14-7-6-13-12-20-18,3,2,6,2,9,3,4,2,9,4,13,6-2-7-4-14-7-21,7,4,14,5,21,9-5-6-9-12-14-17,7-1,15,1,22,1-6-4-13-7-19-11,7-2,14-3,21-4-7-3-14-3-21-5,6-4,12-7,18-11-7,1-15,2-22,2,5-4,9-10,13-15-6,3-13,6-19,8,3-6,3-13,7-19-5,4-10,8-15,13v-20c-3,6-5,12-8,18v-20c-3,6-3,13-5,19-1-7-3-13-4-20,0,7-2,13-1,20-7-5-13-10-19-15v23c-8-1-16-2-24-2l15,18c-7,3-13,9-20,12,7,1,14,2,21,2-6,4-10,9-16,13,7-2,14-3,21-4-4,5-8,11-11,17,3-2,6-4,9-5,1-1,3-2,4-3,2-1,3-1,5-2-4,5-6,12-10,17,4-5,9-10,13-15-3,6-6,11-7,18,3-6,7-11,11-17-2,3-5,5-9,7s-3,3-4,4c8,3,14,9,21,14-6,5-13,9-20,14,7,5,13,10,20,15-7,5-13,11-21,15,8,5,13,13,20,19-12-4-23-8-35-10-3,4-7,8-9,12-2,5-5,9-8,13l-30-6c-3,9-5,19-7,29-11,0-21,2-32,3,3,7,4,15,7,23-8,2-17,1-25,3,3,8,8,15,11,22-9,2-16,5-25,7,6,6,11,12,16,19-8,3-14,8-22,11,5,6,13,9,18,14-6,5-13,9-20,14,5,6,13,8,19,13-6,5-13,9-20,14,7,4,12,11,19,16-7,6-14,11-20,17,7,5,13,10,19,15-6,6-13,11-20,17,6,5,13,10,19,16-7,5-13,11-20,16,7,5,13,10,20,15-7,5-14,10-20,16,7,4,13,9,19,14-6,6-13,11-20,16,7,3,13,7,20,10-7,3-13,7-20,10,7,3,13,7,20,10-7,3-13,7-20,11,7,2,13,6,20,8-5,9-9,18-15,27,9,5,17,10,26,15-2,10-4,21-6,31,10,2,19,4,29,6,2,11,2,21,4,32,7-4,15-6,22-8,2,8,2,17,4,25,7-3,13-9,20-12,4,8,5,16,9,24,6-5,11-12,18-16,3,8,8,15,12,22,3-7,10-13,13-20l15,21c4-7,8-14,13-21,5,7,9,14,14,21,8-6,14-14,22-20,8,6,15,14,23,21,7-7,14-14,22-20,8,6,15,14,23,20,8-6,15-13,22-19,11,7,20,15,31,21,9-8,20-13,29-20,10,7,20,15,31,21,9-7,19-13,29-19,3,2,6,3,9,5,8,5,15,10,22,15,1-7,4-13,5-20,1,7,4,13,6,20,1-7,3-13,4-20,2,6,6,12,7,19,1-6,3-13,4-19,9,5,18,9,27,15,5-8,10-17,15-26,11,2,21,4,32,6,2-10,4-19,6-29,10,0,21-3,31-3-4-6-9-10-13-16,7,2,14,3,21,6-5-5-9-11-15-15,7,1,14,3,21,4-4-5-10-9-15-14,9-3,18-6,27-10-5-7-10-16-15-23,8-6,16-11,24-17-7-5-13-13-20-19,7-6,14-13,20-20-7-4-14-8-20-13,7-4,14-10,21-14-3-2-6-4-9-5-4-2-7-6-12-8,7-5,13-10,21-14-6-5-13-9-20-14,4,3,9,6,12,10-1-7-3-13-3-20,0,7,2,13,3,19l-2,1c-3-4-6-7-10-10h0Z"/>
    <path id="face" class="st1" d="M368.9,396.2c20-.8,43.6-.2,63.8-.2h188.4c16.4,0,36.8-.8,52.6,2.1,17.9,3.3,34.5,11.5,48.1,23.7,35.3,31.9,29.4,68.7,29.7,111.1.2,35.2,2.9,66.4-23.4,94.2-19.7,20.8-44.8,29.9-73,31-18.7.8-43.1,0-62.1,0h-193.2c-16,0-32.9.9-48.7-1.6-43.2-6.9-77.2-41.9-78.6-86.3-.5-15.6,0-31.4-.2-46.7-.5-34.9-2.4-68.5,23.8-95.9,20-21.6,44.1-30.1,72.8-31.6h0v.2Z"/>
    <path id="eyeL" class="st0" d="M408,480.1c24.6-4,47.8,12.8,51.7,37.4,3.8,24.7-13.1,47.7-37.9,51.4-24.4,3.6-47.1-13.2-50.9-37.5-3.8-24.4,12.8-47.2,37.1-51.2h0Z"/>
    <path id="eyeR" class="st0" d="M601.2,480.3c24.3-4.1,47.4,12.2,51.6,36.6,4.2,24.3-12.2,47.4-36.5,51.6-24.3,4.2-47.5-12.2-51.6-36.5-4.2-24.4,12.2-47.5,36.6-51.6h0Z"/>
  </g>
</svg>