<?xml version="1.0" encoding="UTF-8"?><svg id="kochi" xmlns="http://www.w3.org/2000/svg" viewBox="0 0 1024 1024"><path id="body" d="M356.5,329.13c-80.44-1.68-151.58,69.41-149.87,149.88,0,0,0,226.1,0,226.1-.14,39.56,15.88,78.13,43.9,105.98,27.85,28.02,66.42,44.04,105.98,43.9,0,0,310.7,0,310.7,0,59.11.69,115.63-36.98,138.1-91.54,21.98-37.14,8.17-240.81,11.78-284.44.69-59.11-36.98-115.63-91.54-138.1-32.9-22.67-326.84-7.79-369.04-11.78Z" fill="#e6e6e6"/><path id="face" d="M362.1,395.92c-48.3-.99-90.88,41.56-89.87,89.88,0,0,0,82.8,0,82.8-.99,48.31,41.56,90.88,89.88,89.87,0,0,299.6,0,299.6,0,48.3.99,90.88-41.56,89.87-89.88,0,0,0-82.8,0-82.8.99-48.3-41.56-90.88-89.88-89.87,0,0-299.6,0-299.6,0Z" fill="#e6e6e6"/><path id="eyeR" d="M608.7,479.63c-24.69,0-44.78,20.09-44.78,44.77s20.09,44.78,44.78,44.78,44.77-20.09,44.77-44.78-20.09-44.77-44.77-44.77Z" fill="#e6e6e6"/><path id="eyeL" d="M415.3,479.63c-24.69,0-44.77,20.09-44.77,44.77s20.09,44.78,44.77,44.78,44.78-20.09,44.78-44.78-20.09-44.77-44.78-44.77Z" fill="#e6e6e6"/><rect id="antennaR" x="654.03" y="231.53" width="29.75" height="128.05" fill="#e6e6e6"/><rect id="antennaL" x="340.52" y="231.53" width="29.75" height="128.05" fill="#e6e6e6"/><path id="antennaBallR" d="M668.9,176.53c-22.81,0-41.38,18.56-41.38,41.38s18.56,41.38,41.38,41.38,41.38-18.56,41.38-41.38-18.56-41.38-41.38-41.38Z" fill="#e6e6e6"/><path id="antennaBallL" d="M355.1,176.53c-22.81,0-41.38,18.56-41.38,41.38s18.56,41.38,41.38,41.38,41.38-18.56,41.38-41.38-18.56-41.38-41.38-41.38Z" fill="#e6e6e6"/></svg>