<?xml version="1.0" encoding="UTF-8"?>
<svg id="kochi" xmlns="http://www.w3.org/2000/svg" version="1.1" viewBox="0 0 1024 1024">
  <!-- Generator: Adobe Illustrator 29.8.2, SVG Export Plug-In . SVG Version: 2.1.1 Build 3)  -->
  <defs>
    <style>
      .st0 {
        fill: #e6e6e6;
        stroke: #000;
        stroke-miterlimit: 10;
        stroke-width: .2px;
      }
    </style>
  </defs>
  <path class="st0" d="M817.1,479c.7-59.1-37-115.6-91.5-138.1-6.1-4.2-21.1-7.1-41.8-9.1v-75.3c15.5-6,26.5-21,26.5-38.6s-18.6-41.4-41.4-41.4-41.4,18.6-41.4,41.4,11,32.6,26.5,38.6v73.2c-89.1-4.4-232.7.9-283.8,0v-73.3c15.3-6.1,26.2-21,26.2-38.5s-18.6-41.4-41.4-41.4-41.4,18.6-41.4,41.4,11.2,32.8,26.8,38.7v73.1c-73.6,7.2-135.5,74.2-133.9,149.3v226.1c-.1,39.6,15.9,78.1,43.9,106,27.8,28,66.4,44,106,43.9h310.7c59.1.7,115.6-37,138.1-91.5,22-37.1,8.2-240.8,11.8-284.4Z"/>
  <path id="face" class="st0" d="M362.1,395.9c-48.3-1-90.9,41.6-89.9,89.9v82.8c-1,48.3,41.6,90.9,89.9,89.9h299.6c48.3,1,90.9-41.6,89.9-89.9v-82.8c1-48.3-41.6-90.9-89.9-89.9h-299.6Z"/>
  <path id="eyeR" class="st0" d="M608.7,479.6c-24.7,0-44.8,20.1-44.8,44.8s20.1,44.8,44.8,44.8,44.8-20.1,44.8-44.8-20.1-44.8-44.8-44.8h0Z"/>
  <path id="eyeL" class="st0" d="M415.3,479.6c-24.7,0-44.8,20.1-44.8,44.8s20.1,44.8,44.8,44.8,44.8-20.1,44.8-44.8-20.1-44.8-44.8-44.8h0Z"/>
</svg>